<svg xmlns="http://www.w3.org/2000/svg" viewBox="0 0 1200 760"><defs><linearGradient id="s" x1="0" y1="0" x2="0" y2="1"><stop stop-color="#91b8c3"/><stop offset=".64" stop-color="#496e80"/><stop offset="1" stop-color="#1c3a4b"/></linearGradient></defs><rect width="1200" height="760" fill="url(#s)"/><path d="M0 590 170 405 350 530 575 145 825 535 1030 320 1200 560V760H0Z" fill="#edf3f2"/><path d="M0 650 225 520 410 620 620 315 845 615 1045 470 1200 635V760H0Z" fill="#62818c"/><g fill="#edb65d"><circle cx="430" cy="585" r="19"/><circle cx="500" cy="560" r="19"/><circle cx="570" cy="580" r="19"/><circle cx="640" cy="555" r="19"/><circle cx="710" cy="585" r="19"/></g><path d="M0 700c260-38 480-10 720 12 190 18 330 8 480-34v82H0Z" fill="#153747"/></svg>